<svg xmlns="http://www.w3.org/2000/svg" viewBox="0 0 100 100">
  <defs>
    <linearGradient id="cupGradient" x1="0%" y1="0%" x2="0%" y2="100%">
      <stop offset="0%" style="stop-color:#cba6f7;stop-opacity:1" />
      <stop offset="100%" style="stop-color:#f5c2e7;stop-opacity:1" />
    </linearGradient>
    <linearGradient id="steamGradient" x1="0%" y1="0%" x2="0%" y2="100%">
      <stop offset="0%" style="stop-color:#b4befe;stop-opacity:0.8" />
      <stop offset="100%" style="stop-color:#89b4fa;stop-opacity:0.3" />
    </linearGradient>
  </defs>

  <!-- Background circle -->
  <circle cx="50" cy="50" r="48" fill="#1e1e2e" stroke="#45475a" stroke-width="2"/>

  <!-- Coffee cup body -->
  <path d="M 30 40 L 35 75 Q 35 80 40 80 L 60 80 Q 65 80 65 75 L 70 40 Z"
        fill="url(#cupGradient)" stroke="#585b70" stroke-width="2"/>

  <!-- Coffee liquid -->
  <ellipse cx="50" cy="40" rx="20" ry="4" fill="#94e2d5" opacity="0.6"/>

  <!-- Cup handle -->
  <path d="M 70 45 Q 80 45 80 55 Q 80 65 70 65"
        fill="none" stroke="url(#cupGradient)" stroke-width="3" stroke-linecap="round"/>

  <!-- Steam 1 -->
  <path d="M 40 35 Q 38 28 40 22"
        fill="none" stroke="url(#steamGradient)" stroke-width="2" stroke-linecap="round" opacity="0.7">
    <animate attributeName="opacity" values="0.7;0.3;0.7" dur="2s" repeatCount="indefinite"/>
  </path>

  <!-- Steam 2 -->
  <path d="M 50 35 Q 50 26 50 18"
        fill="none" stroke="url(#steamGradient)" stroke-width="2.5" stroke-linecap="round" opacity="0.8">
    <animate attributeName="opacity" values="0.8;0.4;0.8" dur="2.5s" repeatCount="indefinite"/>
  </path>

  <!-- Steam 3 -->
  <path d="M 60 35 Q 62 28 60 22"
        fill="none" stroke="url(#steamGradient)" stroke-width="2" stroke-linecap="round" opacity="0.6">
    <animate attributeName="opacity" values="0.6;0.2;0.6" dur="3s" repeatCount="indefinite"/>
  </path>

  <!-- Coffee beans decoration -->
  <ellipse cx="45" cy="55" rx="3" ry="4" fill="#11111b" opacity="0.3" transform="rotate(-20 45 55)"/>
  <ellipse cx="55" cy="60" rx="3" ry="4" fill="#11111b" opacity="0.3" transform="rotate(15 55 60)"/>
</svg>
